<svg width="56" height="60" xmlns="http://www.w3.org/2000/svg">
 <title/>
 <desc/>

 <g>
  <title>background</title>
  <rect fill="none" id="canvas_background" height="402" width="582" y="-1" x="-1"/>
 </g>
 <g>
  <title>Layer 1</title>
  <path fill="#ff3596" id="android-brain" d="m20,27c0,0.551 0.448,1 1,1c0.552,0 1,-0.449 1,-1c0,-0.551 -0.448,-1 -1,-1c-0.552,0 -1,0.449 -1,1l0,0zm2,18c0,-0.551 -0.448,-1 -1,-1c-0.552,0 -1,0.449 -1,1c0,0.551 0.448,1 1,1c0.552,0 1,-0.449 1,-1l0,0zm-8,-18c0,-0.551 -0.448,-1 -1,-1c-0.552,0 -1,0.449 -1,1c0,0.551 0.448,1 1,1c0.552,0 1,-0.449 1,-1l0,0zm0,12c0,-0.551 -0.448,-1 -1,-1c-0.552,0 -1,0.449 -1,1c0,0.551 0.448,1 1,1c0.552,0 1,-0.449 1,-1l0,0zm6,-22c0,0.551 0.448,1 1,1c0.552,0 1,-0.449 1,-1c0,-0.551 -0.448,-1 -1,-1c-0.552,0 -1,0.449 -1,1l0,0zm-6,1l0,6.184c0.848,0.302 1.514,0.969 1.815,1.816l2.37,0c0.414,-1.162 1.513,-2 2.815,-2c1.654,0 3,1.346 3,3c0,1.302 -0.839,2.401 -2,2.816l0,12.368c1.161,0.415 2,1.514 2,2.816c0,1.302 -0.839,2.401 -2,2.816l0,3.184c0,0.552 -0.447,1 -1,1c-0.553,0 -1,-0.448 -1,-1l0,-3.185c-1.021,-0.363 -1.782,-1.257 -1.953,-2.355l-3.754,-3.753c-0.003,-0.002 -0.003,-0.006 -0.006,-0.009c-0.391,0.188 -0.824,0.302 -1.287,0.302c-1.654,0 -3,-1.346 -3,-3c0,-1.654 1.346,-3 3,-3c1.654,0 3,1.346 3,3c0,0.462 -0.114,0.896 -0.302,1.287c0.003,0.003 0.006,0.004 0.009,0.006l2.907,2.908c0.351,-0.464 0.829,-0.818 1.386,-1.017l0,-12.369c-0.848,-0.301 -1.514,-0.968 -1.815,-1.815l-2.37,0c-0.414,1.162 -1.513,2 -2.815,2c-1.654,0 -3,-1.346 -3,-3c0,-1.302 0.839,-2.401 2,-2.816l0,-7.184c0,-0.552 0.447,-1 1,-1l5.185,0c0.301,-0.847 0.967,-1.514 1.815,-1.816l0,-3.184c0,-0.552 0.447,-1 1,-1c0.553,0 1,0.448 1,1l0,3.184c1.161,0.415 2,1.514 2,2.816c0,1.654 -1.346,3 -3,3c-1.302,0 -2.401,-0.838 -2.815,-2l-4.185,0zm39.633,19.245c1.489,-1.309 2.367,-3.203 2.367,-5.245c0,-2.14 -0.951,-4.106 -2.585,-5.426c0.385,-0.803 0.585,-1.678 0.585,-2.574c0,-2.064 -1.083,-3.965 -2.792,-5.05c0.516,-0.899 0.792,-1.913 0.792,-2.95c0,-2.58 -1.639,-4.823 -4.011,-5.651c0.007,-0.117 0.011,-0.233 0.011,-0.349c0,-3.309 -2.691,-6 -6,-6c-0.807,0 -1.593,0.164 -2.327,0.48c-0.86,-2.604 -3.333,-4.48 -6.173,-4.48c-4.208,0 -6.079,3.796 -6.48,5.804c-0.007,0.033 0.002,0.065 0,0.099c-0.003,0.034 -0.02,0.062 -0.02,0.097l0,46.94c-0.226,2.839 -2.637,5.06 -5.5,5.06c-2.853,0 -5.257,-2.229 -5.474,-5.076c-0.04,-0.521 -0.504,-0.924 -1.026,-0.924c-0.312,0 -0.606,0.146 -0.796,0.394c-0.776,1.021 -1.944,1.606 -3.204,1.606c-2.206,0 -4,-1.794 -4,-4c0,-0.908 0.316,-1.776 0.916,-2.511c0.27,-0.331 0.3,-0.798 0.073,-1.161c-0.226,-0.363 -0.654,-0.543 -1.076,-0.444c-0.335,0.078 -0.634,0.116 -0.913,0.116c-2.206,0 -4,-1.794 -4,-4c0,-1.649 1.047,-3.149 2.604,-3.733c0.371,-0.139 0.625,-0.483 0.648,-0.877c0.023,-0.395 -0.189,-0.767 -0.539,-0.948c-1.674,-0.863 -2.713,-2.566 -2.713,-4.442c0,-1.764 0.907,-3.364 2.427,-4.28c0.237,-0.143 0.404,-0.378 0.462,-0.649c0.057,-0.272 -0.001,-0.554 -0.16,-0.781c-0.477,-0.681 -0.729,-1.472 -0.729,-2.29c0,-1.661 1.058,-3.164 2.631,-3.741c0.311,-0.114 0.546,-0.375 0.627,-0.696c0.08,-0.322 -0.005,-0.663 -0.226,-0.91c-0.666,-0.743 -1.032,-1.685 -1.032,-2.653c0,-1.938 1.389,-3.589 3.301,-3.927c0.268,-0.048 0.507,-0.203 0.658,-0.43c0.151,-0.227 0.203,-0.506 0.145,-0.772c-0.07,-0.312 -0.104,-0.597 -0.104,-0.871c0,-2.206 1.794,-4 4,-4c0.866,0 1.701,0.289 2.416,0.836c0.291,0.222 0.68,0.268 1.013,0.12c0.335,-0.149 0.561,-0.468 0.592,-0.832c0.19,-2.312 2.158,-4.124 4.479,-4.124c1.114,0 2.035,0.358 2.815,1.094c0.403,0.379 1.036,0.36 1.414,-0.042c0.379,-0.402 0.361,-1.034 -0.041,-1.413c-1.153,-1.088 -2.562,-1.639 -4.188,-1.639c-2.84,0 -5.313,1.876 -6.173,4.48c-0.734,-0.316 -1.52,-0.48 -2.327,-0.48c-3.309,0 -6,2.691 -6,6c0,0.116 0.004,0.232 0.011,0.349c-2.372,0.828 -4.011,3.071 -4.011,5.651c0,1.037 0.276,2.051 0.792,2.95c-1.709,1.085 -2.792,2.986 -2.792,5.05c0,0.896 0.2,1.771 0.585,2.574c-1.634,1.32 -2.585,3.286 -2.585,5.426c0,2.042 0.878,3.936 2.367,5.245c-1.461,1.117 -2.367,2.871 -2.367,4.755c0,3.093 2.353,5.647 5.363,5.966c-0.24,0.648 -0.363,1.332 -0.363,2.034c0,3.309 2.691,6 6,6c1.242,0 2.424,-0.377 3.416,-1.068c1.02,2.954 3.839,5.068 7.084,5.068c3.908,0 7.201,-3.042 7.497,-6.924c0.001,-0.013 -0.005,-0.025 -0.005,-0.038c0.001,-0.014 0.008,-0.024 0.008,-0.038l0,-46.89c0.148,-0.614 1.135,-4.11 4.5,-4.11c2.321,0 4.289,1.812 4.479,4.124c0.031,0.364 0.257,0.683 0.592,0.832c0.333,0.148 0.722,0.102 1.013,-0.12c0.715,-0.547 1.55,-0.836 2.416,-0.836c2.206,0 4,1.794 4,4c0,0.274 -0.034,0.559 -0.104,0.871c-0.058,0.266 -0.006,0.545 0.145,0.772c0.151,0.227 0.39,0.382 0.658,0.43c1.912,0.338 3.301,1.989 3.301,3.927c0,0.968 -0.366,1.91 -1.032,2.653c-0.221,0.247 -0.306,0.588 -0.226,0.91c0.081,0.321 0.316,0.582 0.627,0.696c1.573,0.577 2.631,2.08 2.631,3.741c0,0.818 -0.252,1.609 -0.729,2.29c-0.159,0.227 -0.217,0.509 -0.16,0.781c0.058,0.271 0.225,0.506 0.462,0.649c1.52,0.916 2.427,2.516 2.427,4.28c0,1.876 -1.039,3.579 -2.713,4.442c-0.35,0.181 -0.562,0.553 -0.539,0.948c0.023,0.394 0.277,0.738 0.648,0.877c1.557,0.584 2.604,2.084 2.604,3.733c0,2.206 -1.794,4 -4,4c-0.279,0 -0.578,-0.038 -0.913,-0.116c-0.42,-0.099 -0.849,0.081 -1.076,0.444c-0.227,0.363 -0.197,0.83 0.073,1.161c0.6,0.735 0.916,1.603 0.916,2.511c0,2.206 -1.794,4 -4,4c-1.264,0 -2.43,-0.592 -3.198,-1.625c-0.258,-0.345 -0.707,-0.486 -1.116,-0.352c-0.148,0.049 -0.278,0.13 -0.383,0.233c-0.186,0.166 -0.309,0.402 -0.329,0.668c-0.217,2.847 -2.621,5.076 -5.474,5.076c-1.257,0 -2.443,-0.413 -3.43,-1.194c-0.435,-0.343 -1.062,-0.269 -1.405,0.163c-0.343,0.433 -0.269,1.062 0.163,1.405c1.325,1.048 2.985,1.626 4.672,1.626c3.247,0 6.068,-2.118 7.086,-5.075c0.989,0.696 2.169,1.075 3.414,1.075c3.309,0 6,-2.691 6,-6c0,-0.702 -0.123,-1.386 -0.363,-2.034c3.01,-0.319 5.363,-2.873 5.363,-5.966c0,-1.884 -0.906,-3.638 -2.367,-4.755l0,0zm-17.633,7.755c0,0.552 0.447,1 1,1c1.458,0 3,1.542 3,3c0,0.552 0.447,1 1,1c0.553,0 1,-0.448 1,-1c0,-2.57 -2.43,-5 -5,-5c-0.553,0 -1,0.448 -1,1l0,0zm9,-27c-1.458,0 -3,-1.542 -3,-3c0,-0.552 -0.447,-1 -1,-1c-0.553,0 -1,0.448 -1,1c0,2.57 2.43,5 5,5c0.553,0 1,-0.448 1,-1c0,-0.552 -0.447,-1 -1,-1l0,0zm-12,22c0.553,0 1,-0.448 1,-1c0,-1.458 1.542,-3 3,-3c0.553,0 1,-0.448 1,-1c0,-0.552 -0.447,-1 -1,-1c-2.57,0 -5,2.43 -5,5c0,0.552 0.447,1 1,1l0,0zm4,-12c0.553,0 1,-0.448 1,-1c0,-0.552 -0.447,-1 -1,-1c-1.458,0 -3,-1.542 -3,-3c0,-0.552 -0.447,-1 -1,-1c-0.553,0 -1,0.448 -1,1c0,2.57 2.43,5 5,5l0,0zm10,-4c-0.553,0 -1,0.448 -1,1c0,1.458 -1.542,3 -3,3c-0.553,0 -1,0.448 -1,1c0,0.552 0.447,1 1,1c2.57,0 5,-2.43 5,-5c0,-0.552 -0.447,-1 -1,-1l0,0zm-4,12c-0.553,0 -1,0.448 -1,1c0,0.552 0.447,1 1,1c1.458,0 3,1.542 3,3c0,0.552 0.447,1 1,1c0.553,0 1,-0.448 1,-1c0,-2.57 -2.43,-5 -5,-5l0,0zm-11,-22c0,-2.57 2.43,-5 5,-5c0.553,0 1,0.448 1,1c0,0.552 -0.447,1 -1,1c-1.458,0 -3,1.542 -3,3c0,0.552 -0.447,1 -1,1c-0.553,0 -1,-0.448 -1,-1l0,0z"/>
 </g>
</svg>