<svg width="26" height="32" xmlns="http://www.w3.org/2000/svg">

 <g>
  <title>background</title>
  <rect fill="none" id="canvas_background" height="402" width="582" y="-1" x="-1"/>
 </g>
 <g>
  <title>Layer 1</title>
  <path fill-rule="evenodd" clip-rule="evenodd" fill="#10DD76" id="Hands_1_" d="m2,10c-1.1,0 -2,0.9 -2,2l0,8c0,1.1 0.9,2 2,2s2,-0.9 2,-2l0,-8c0,-1.1 -0.9,-2 -2,-2z"/>
  <path fill-rule="evenodd" clip-rule="evenodd" fill="#10DD76" id="Hands" d="m24,10c-1.1,0 -2,0.9 -2,2l0,8c0,1.1 0.9,2 2,2s2,-0.9 2,-2l0,-8c0,-1.1 -0.9,-2 -2,-2z"/>
  <path fill="#10DD76" id="Body" d="m5,10l0,14c0,1.1 0.9,2 2,2l1,0l0,4c0,1.1 0.9,2 2,2s2,-0.9 2,-2l0,-4l2,0l0,4c0,1.1 0.9,2 2,2s2,-0.9 2,-2l0,-4l1,0c1.1,0 2,-0.9 2,-2l0,-14l-16,0z"/>
  <path fill-rule="evenodd" clip-rule="evenodd" fill="#10DD76" id="Head" d="m21,9c0,-2 -0.7,-3.7 -1.9,-5.1l1.8,-3.1c0.1,-0.2 0.1,-0.5 -0.2,-0.7s-0.5,-0.1 -0.6,0.2l-1.7,2.9c-1.4,-1.4 -3.3,-2.2 -5.4,-2.2s-4,0.8 -5.4,2.1l-1.7,-2.8c-0.1,-0.3 -0.4,-0.4 -0.6,-0.2s-0.4,0.4 -0.2,0.7l1.8,3.1c-1.2,1.4 -1.9,3.1 -1.9,5.1l16,0z"/>
  <circle fill-rule="evenodd" clip-rule="evenodd" fill="#F4F4F4" r="1" id="Eyes_1_" cy="5" cx="10"/>
  <circle fill-rule="evenodd" clip-rule="evenodd" fill="#F4F4F4" r="1" id="Eyes" cy="5" cx="16"/>
  <polygon fill="#0CC15E" points="14,26 18,30 18,26 " id="Shadow_1_"/>
  <polygon fill="#0CC15E" points="8,26 12,30 12,26 " id="Shadow"/>
 </g>
</svg>